<svg width="22" height="16" viewBox="0 0 22 16" fill="none" xmlns="http://www.w3.org/2000/svg">
<path d="M21.0938 12.75H0.78125C0.57405 12.75 0.375336 12.8323 0.228823 12.9788C0.0823101 13.1253 0 13.324 0 13.5312L0 15.0938C0 15.301 0.0823101 15.4997 0.228823 15.6462C0.375336 15.7927 0.57405 15.875 0.78125 15.875H21.0938C21.301 15.875 21.4997 15.7927 21.6462 15.6462C21.7927 15.4997 21.875 15.301 21.875 15.0938V13.5312C21.875 13.324 21.7927 13.1253 21.6462 12.9788C21.4997 12.8323 21.301 12.75 21.0938 12.75ZM21.0938 6.5H0.78125C0.57405 6.5 0.375336 6.58231 0.228823 6.72882C0.0823101 6.87534 0 7.07405 0 7.28125L0 8.84375C0 9.05095 0.0823101 9.24966 0.228823 9.39618C0.375336 9.54269 0.57405 9.625 0.78125 9.625H21.0938C21.301 9.625 21.4997 9.54269 21.6462 9.39618C21.7927 9.24966 21.875 9.05095 21.875 8.84375V7.28125C21.875 7.07405 21.7927 6.87534 21.6462 6.72882C21.4997 6.58231 21.301 6.5 21.0938 6.5ZM21.0938 0.25H0.78125C0.57405 0.25 0.375336 0.33231 0.228823 0.478823C0.0823101 0.625336 0 0.82405 0 1.03125L0 2.59375C0 2.80095 0.0823101 2.99966 0.228823 3.14618C0.375336 3.29269 0.57405 3.375 0.78125 3.375H21.0938C21.301 3.375 21.4997 3.29269 21.6462 3.14618C21.7927 2.99966 21.875 2.80095 21.875 2.59375V1.03125C21.875 0.82405 21.7927 0.625336 21.6462 0.478823C21.4997 0.33231 21.301 0.25 21.0938 0.25Z" fill="black"/>
</svg>
