<svg width="247" height="32" viewBox="0 0 247 32" fill="none" xmlns="http://www.w3.org/2000/svg">
<path d="M5.54297 22.1719C5.29557 21.9115 5.1263 21.6771 5.03516 21.4688C4.94401 21.2474 4.89844 20.9544 4.89844 20.5898C4.89844 20.2253 5.0612 19.8737 5.38672 19.5352C5.72526 19.1836 6.13542 19.0078 6.61719 19.0078H7.98438V7.97266H7.10547C6.44141 7.97266 5.90104 8.1875 5.48438 8.61719C5.08073 9.04688 4.87891 9.60677 4.87891 10.2969V11.4102C4.87891 12.4258 4.40365 13.1289 3.45312 13.5195C3.16667 13.6367 2.86068 13.6953 2.53516 13.6953C2.22266 13.6953 1.92318 13.6367 1.63672 13.5195C1.36328 13.4023 1.1224 13.2396 0.914062 13.0312C0.471354 12.5885 0.25 12.0482 0.25 11.4102V10.2383C0.25 8.63672 0.822917 7.27604 1.96875 6.15625C3.11458 5.02344 4.46875 4.45703 6.03125 4.45703H10.2891C10.9271 4.45703 11.4089 4.61979 11.7344 4.94531C12.3073 5.51823 12.5938 6.13672 12.5938 6.80078V19.0078H17.2617V6.80078C17.2617 5.77214 17.724 5.04948 18.6484 4.63281C18.9349 4.51562 19.2409 4.45703 19.5664 4.45703C19.9049 4.45703 20.2109 4.52214 20.4844 4.65234C20.7578 4.76953 20.9987 4.93229 21.207 5.14062C21.6497 5.58333 21.8711 6.13672 21.8711 6.80078V28.7148C21.8711 29.6914 21.4089 30.388 20.4844 30.8047C20.2109 30.9349 19.9049 31 19.5664 31C19.2409 31 18.9349 30.9414 18.6484 30.8242C18.375 30.694 18.1341 30.5312 17.9258 30.3359C17.4831 29.9062 17.2617 29.3659 17.2617 28.7148V22.543H12.5938V25.2188C12.5938 26.8203 12.0339 28.181 10.9141 29.3008C9.78125 30.4336 8.42057 31 6.83203 31H4.56641C4.07161 31 3.65495 30.8307 3.31641 30.4922C2.97786 30.1536 2.80859 29.7435 2.80859 29.2617C2.80859 28.7669 2.97786 28.3438 3.31641 27.9922C3.65495 27.6406 4.07161 27.4648 4.56641 27.4648H5.67969C6.31771 27.4648 6.80599 27.3021 7.14453 26.9766C7.70443 26.4427 7.98438 25.8438 7.98438 25.1797V22.543H6.61719C6.16146 22.543 5.80339 22.4193 5.54297 22.1719ZM28.6875 15.5312C28.6875 13.7734 29.2865 12.3802 30.4844 11.3516C31.7344 10.3099 33.4531 9.78906 35.6406 9.78906C37.8021 9.78906 39.5078 10.3099 40.7578 11.3516C41.9688 12.3932 42.5742 13.7995 42.5742 15.5703V25.668C42.5742 28.3893 41.2461 30.1667 38.5898 31C37.7305 31.2604 36.7474 31.3906 35.6406 31.3906C34.5469 31.3906 33.5703 31.2604 32.7109 31C31.8516 30.7266 31.1224 30.3359 30.5234 29.8281C29.2995 28.8125 28.6875 27.4062 28.6875 25.6094V15.5312ZM37.9453 15.6289C37.9453 14.9779 37.7826 14.4896 37.457 14.1641C36.8841 13.5911 36.2786 13.3047 35.6406 13.3047C34.9896 13.3047 34.4948 13.474 34.1562 13.8125C33.5964 14.3724 33.3164 14.9779 33.3164 15.6289V25.7852C33.3164 26.4492 33.5378 26.9635 33.9805 27.3281C34.4232 27.6797 34.9701 27.8555 35.6211 27.8555C36.2852 27.8555 36.8385 27.6797 37.2812 27.3281C37.724 26.9635 37.9453 26.4492 37.9453 25.7852V15.6289ZM57.75 9.78906C58.0755 9.78906 58.3945 9.83464 58.707 9.92578C59.0195 10.0169 59.3125 10.1602 59.5859 10.3555C60.2109 10.8112 60.5234 11.4427 60.5234 12.25C60.5234 12.901 60.3542 13.3893 60.0156 13.7148C59.4297 14.2747 58.8828 14.5547 58.375 14.5547C57.724 14.5547 57.1315 14.3464 56.5977 13.9297C56.181 13.6562 55.7122 13.5195 55.1914 13.5195C54.6706 13.5195 54.2604 13.6888 53.9609 14.0273C53.6615 14.3529 53.5117 14.7695 53.5117 15.2773V29.0859C53.5117 29.7109 53.349 30.1927 53.0234 30.5312C52.4375 31.1042 51.9036 31.3906 51.4219 31.3906C50.9531 31.3906 50.5755 31.3255 50.2891 31.1953C50.0156 31.0781 49.7747 30.9154 49.5664 30.707C49.1107 30.2513 48.8828 29.7109 48.8828 29.0859V12.1328C48.8828 11.4948 49.0521 11 49.3906 10.6484C49.9375 10.0755 50.4583 9.78906 50.9531 9.78906C51.4609 9.78906 51.8385 9.84766 52.0859 9.96484C52.3333 10.069 52.5417 10.1927 52.7109 10.3359C52.9453 10.5443 53.1146 10.7591 53.2188 10.9805C53.3229 11.1888 53.4076 11.3451 53.4727 11.4492C53.5508 11.5534 53.668 11.6055 53.8242 11.6055C53.9935 11.6055 54.1302 11.5534 54.2344 11.4492L54.5859 11.1172C55.6016 10.2318 56.6562 9.78906 57.75 9.78906ZM75.3867 27.4648C75.8815 27.4648 76.2917 27.6406 76.6172 27.9922C76.9427 28.3438 77.1055 28.7669 77.1055 29.2617C77.1055 29.7435 76.9427 30.1536 76.6172 30.4922C76.2917 30.8307 75.8815 31 75.3867 31H73.043C71.4544 31 70.0938 30.4336 68.9609 29.3008C67.8411 28.181 67.2812 26.8203 67.2812 25.2188V13.6172H64.9766C64.2344 13.6172 63.707 13.2656 63.3945 12.5625C63.3034 12.3542 63.2578 12.1328 63.2578 11.8984C63.2578 11.1562 63.6094 10.6289 64.3125 10.3164C64.5208 10.2253 64.7422 10.1797 64.9766 10.1797H67.2812V6.11719C67.2812 5.08854 67.75 4.3724 68.6875 3.96875C68.9609 3.83854 69.2604 3.77344 69.5859 3.77344C70.224 3.77344 70.7057 3.94271 71.0312 4.28125C71.6042 4.84115 71.8906 5.45312 71.8906 6.11719V10.1797H75.4258C75.8815 10.1797 76.2331 10.3034 76.4805 10.5508C76.8971 10.9674 77.1055 11.4167 77.1055 11.8984C77.1055 12.3672 76.9427 12.7708 76.6172 13.1094C76.2917 13.4479 75.8945 13.6172 75.4258 13.6172H71.8906V25.1797C71.8906 25.8307 72.0599 26.3125 72.3984 26.625C72.9714 27.1849 73.5703 27.4648 74.1953 27.4648H75.3867ZM83.1602 12.1328C83.1602 11.4948 83.3229 11 83.6484 10.6484C84.2083 10.0755 84.8268 9.78906 85.5039 9.78906C86.1549 9.78906 86.6367 9.95833 86.9492 10.2969C87.5221 10.8828 87.8086 11.4948 87.8086 12.1328V29.1055C87.8086 29.7305 87.6458 30.2057 87.3203 30.5312C86.7474 31.1042 86.2201 31.3906 85.7383 31.3906C85.2565 31.3906 84.8724 31.3255 84.5859 31.1953C84.2995 31.0781 84.0521 30.9219 83.8438 30.7266C83.388 30.2839 83.1602 29.7435 83.1602 29.1055V12.1328ZM85.5039 0.960938C86.2201 0.960938 86.8385 1.22135 87.3594 1.74219C87.8802 2.26302 88.1406 2.79036 88.1406 3.32422C88.1406 3.85807 88.069 4.28125 87.9258 4.59375C87.7826 4.90625 87.5938 5.17969 87.3594 5.41406C86.8385 5.9349 86.2201 6.19531 85.5039 6.19531C84.7878 6.19531 84.1693 5.9349 83.6484 5.41406C83.1276 4.89323 82.8672 4.3724 82.8672 3.85156C82.8672 2.96615 83.1276 2.26302 83.6484 1.74219C84.1693 1.22135 84.7878 0.960938 85.5039 0.960938Z" fill="#0D9202"/>
<path d="M118.805 22.7383C119.273 23.4544 119.508 24.2682 119.508 25.1797C119.508 26.0911 119.345 26.9049 119.02 27.6211C118.707 28.3242 118.245 28.9297 117.633 29.4375C116.37 30.4792 114.618 31 112.379 31C108.954 31 106.728 29.8802 105.699 27.6406C105.374 26.9245 105.211 26.1172 105.211 25.2188V20.2773C105.211 18.4284 105.836 17.0482 107.086 16.1367C107.477 15.8503 107.919 15.5898 108.414 15.3555C107.451 14.8346 106.799 14.3073 106.461 13.7734C105.836 12.8229 105.523 11.7096 105.523 10.4336V9.80859C105.523 8.05078 106.122 6.66406 107.32 5.64844C108.57 4.59375 110.283 4.06641 112.457 4.06641C114.54 4.06641 116.188 4.58073 117.398 5.60938C118.57 6.61198 119.169 7.99219 119.195 9.75V10.043C119.195 10.681 119.033 11.1628 118.707 11.4883C118.134 12.0612 117.535 12.3477 116.91 12.3477C116.272 12.3477 115.784 12.1849 115.445 11.8594C114.885 11.2865 114.605 10.681 114.605 10.043V9.75C114.579 9.13802 114.417 8.68229 114.117 8.38281C113.583 7.84896 113.089 7.58203 112.633 7.58203C112.19 7.58203 111.826 7.64062 111.539 7.75781C111.266 7.875 111.025 8.03776 110.816 8.24609C110.374 8.6888 110.152 9.23568 110.152 9.88672V11.0977C110.152 11.9961 110.569 12.6797 111.402 13.1484C111.624 13.2656 111.91 13.3633 112.262 13.4414C112.626 13.5195 112.971 13.7214 113.297 14.0469C113.635 14.3724 113.805 14.8086 113.805 15.3555C113.805 15.8893 113.635 16.3255 113.297 16.6641C112.971 16.9896 112.62 17.1914 112.242 17.2695C111.878 17.3477 111.559 17.4518 111.285 17.582C111.025 17.6992 110.784 17.8555 110.562 18.0508C110.068 18.5065 109.82 19.0273 109.82 19.6133V25.3945C109.82 26.3841 110.341 27.0286 111.383 27.3281C111.695 27.4193 112.04 27.4648 112.418 27.4648C112.809 27.4648 113.18 27.4062 113.531 27.2891C113.883 27.1719 114.189 27.0091 114.449 26.8008C114.996 26.3581 115.27 25.8698 115.27 25.3359C115.27 24.7891 115.185 24.3789 115.016 24.1055C114.846 23.832 114.658 23.5716 114.449 23.3242C113.902 22.6732 113.629 22.1263 113.629 21.6836C113.629 21.2409 113.688 20.8828 113.805 20.6094C113.922 20.3359 114.085 20.0951 114.293 19.8867C114.736 19.444 115.283 19.2227 115.934 19.2227H118.766C119.339 19.2227 119.781 19.0469 120.094 18.6953C120.615 18.1094 120.875 17.5104 120.875 16.8984V15.6484C120.875 14.9974 121.044 14.5156 121.383 14.2031C121.956 13.6432 122.483 13.3633 122.965 13.3633C123.447 13.3633 123.824 13.4219 124.098 13.5391C124.384 13.6562 124.625 13.819 124.82 14.0273C125.276 14.4961 125.504 15.0365 125.504 15.6484V16.957C125.504 18.5456 124.938 19.9062 123.805 21.0391C122.672 22.1719 121.311 22.7383 119.723 22.7383H118.805Z" fill="black"/>
<path d="M146.129 8.55859C146.129 8.16797 145.94 7.97266 145.562 7.97266H143.316C142.743 7.97266 142.301 8.14844 141.988 8.5C141.467 9.08594 141.207 9.6849 141.207 10.2969V11.4102C141.207 12.4258 140.732 13.1289 139.781 13.5195C139.495 13.6367 139.189 13.6953 138.863 13.6953C138.551 13.6953 138.251 13.6367 137.965 13.5195C137.691 13.4023 137.451 13.2396 137.242 13.0312C136.799 12.5885 136.578 12.0482 136.578 11.4102V10.2383C136.578 8.64974 137.145 7.28906 138.277 6.15625C139.41 5.02344 140.771 4.45703 142.359 4.45703H153.805C154.299 4.45703 154.71 4.63281 155.035 4.98438C155.374 5.32292 155.543 5.67448 155.543 6.03906C155.543 6.40365 155.497 6.69661 155.406 6.91797C155.315 7.1263 155.191 7.30859 155.035 7.46484C154.697 7.80339 154.286 7.97266 153.805 7.97266H151.051C150.465 7.97266 150.016 8.13542 149.703 8.46094C149.169 9.03385 148.902 9.63932 148.902 10.2773V17.1133H152.652C153.134 17.1133 153.505 17.237 153.766 17.4844C154.208 17.901 154.43 18.2982 154.43 18.6758C154.43 19.0404 154.384 19.3333 154.293 19.5547C154.202 19.763 154.078 19.9453 153.922 20.1016C153.57 20.4531 153.147 20.6289 152.652 20.6289H148.902V25.2188C148.902 26.8203 148.342 28.181 147.223 29.3008C146.09 30.4336 144.729 31 143.141 31H140.875C140.38 31 139.964 30.8307 139.625 30.4922C139.286 30.1536 139.117 29.7435 139.117 29.2617C139.117 28.7669 139.286 28.3438 139.625 27.9922C139.964 27.6406 140.38 27.4648 140.875 27.4648H141.988C142.626 27.4648 143.115 27.3021 143.453 26.9766C144.013 26.4427 144.293 25.8438 144.293 25.1797V20.6289H143.434C142.952 20.6289 142.581 20.5052 142.32 20.2578C141.878 19.8411 141.656 19.4505 141.656 19.0859C141.656 18.7083 141.702 18.4154 141.793 18.207C141.884 17.9857 142.008 17.7969 142.164 17.6406C142.516 17.2891 142.939 17.1133 143.434 17.1133H144.293V12.3281C144.293 11.0911 144.846 9.95182 145.953 8.91016C146.07 8.80599 146.129 8.6888 146.129 8.55859ZM167.672 9.78906C167.997 9.78906 168.316 9.83464 168.629 9.92578C168.941 10.0169 169.234 10.1602 169.508 10.3555C170.133 10.8112 170.445 11.4427 170.445 12.25C170.445 12.901 170.276 13.3893 169.938 13.7148C169.352 14.2747 168.805 14.5547 168.297 14.5547C167.646 14.5547 167.053 14.3464 166.52 13.9297C166.103 13.6562 165.634 13.5195 165.113 13.5195C164.592 13.5195 164.182 13.6888 163.883 14.0273C163.583 14.3529 163.434 14.7695 163.434 15.2773V29.0859C163.434 29.7109 163.271 30.1927 162.945 30.5312C162.359 31.1042 161.826 31.3906 161.344 31.3906C160.875 31.3906 160.497 31.3255 160.211 31.1953C159.938 31.0781 159.697 30.9154 159.488 30.707C159.033 30.2513 158.805 29.7109 158.805 29.0859V12.1328C158.805 11.4948 158.974 11 159.312 10.6484C159.859 10.0755 160.38 9.78906 160.875 9.78906C161.383 9.78906 161.76 9.84766 162.008 9.96484C162.255 10.069 162.464 10.1927 162.633 10.3359C162.867 10.5443 163.036 10.7591 163.141 10.9805C163.245 11.1888 163.329 11.3451 163.395 11.4492C163.473 11.5534 163.59 11.6055 163.746 11.6055C163.915 11.6055 164.052 11.5534 164.156 11.4492L164.508 11.1172C165.523 10.2318 166.578 9.78906 167.672 9.78906ZM184.996 10.6484C185.335 10.3229 185.641 10.1016 185.914 9.98438C186.201 9.85417 186.5 9.78906 186.812 9.78906C187.138 9.78906 187.438 9.84766 187.711 9.96484C187.997 10.082 188.245 10.2448 188.453 10.4531C188.909 10.9089 189.137 11.4492 189.137 12.0742V29.0469C189.137 29.6849 188.974 30.1797 188.648 30.5312C188.089 31.1042 187.555 31.3906 187.047 31.3906C186.552 31.3906 186.181 31.332 185.934 31.2148C185.686 31.1107 185.484 30.987 185.328 30.8438C185.081 30.6354 184.905 30.4271 184.801 30.2188C184.71 29.9974 184.625 29.8346 184.547 29.7305C184.469 29.6263 184.345 29.5742 184.176 29.5742C184.02 29.5742 183.889 29.6328 183.785 29.75C183.681 29.8542 183.512 30.0234 183.277 30.2578C182.496 31.013 181.637 31.3906 180.699 31.3906C179.775 31.3906 179 31.2409 178.375 30.9414C177.75 30.6289 177.203 30.2057 176.734 29.6719C175.745 28.5391 175.25 27.1849 175.25 25.6094V12.0742C175.25 11.0846 175.719 10.388 176.656 9.98438C176.93 9.85417 177.223 9.78906 177.535 9.78906C177.861 9.78906 178.167 9.84766 178.453 9.96484C178.74 10.082 178.987 10.2448 179.195 10.4531C179.651 10.9089 179.879 11.4492 179.879 12.0742V25.5508C179.879 26.2018 180.042 26.6901 180.367 27.0156C180.94 27.5885 181.539 27.875 182.164 27.875C183.193 27.875 183.909 27.4714 184.312 26.6641C184.443 26.4036 184.508 26.1107 184.508 25.7852V12.0742C184.508 11.4362 184.671 10.9609 184.996 10.6484ZM205.309 27.4648C205.803 27.4648 206.214 27.6406 206.539 27.9922C206.865 28.3438 207.027 28.7669 207.027 29.2617C207.027 29.7435 206.865 30.1536 206.539 30.4922C206.214 30.8307 205.803 31 205.309 31H202.965C201.376 31 200.016 30.4336 198.883 29.3008C197.763 28.181 197.203 26.8203 197.203 25.2188V13.6172H194.898C194.156 13.6172 193.629 13.2656 193.316 12.5625C193.225 12.3542 193.18 12.1328 193.18 11.8984C193.18 11.1562 193.531 10.6289 194.234 10.3164C194.443 10.2253 194.664 10.1797 194.898 10.1797H197.203V6.11719C197.203 5.08854 197.672 4.3724 198.609 3.96875C198.883 3.83854 199.182 3.77344 199.508 3.77344C200.146 3.77344 200.628 3.94271 200.953 4.28125C201.526 4.84115 201.812 5.45312 201.812 6.11719V10.1797H205.348C205.803 10.1797 206.155 10.3034 206.402 10.5508C206.819 10.9674 207.027 11.4167 207.027 11.8984C207.027 12.3672 206.865 12.7708 206.539 13.1094C206.214 13.4479 205.816 13.6172 205.348 13.6172H201.812V25.1797C201.812 25.8307 201.982 26.3125 202.32 26.625C202.893 27.1849 203.492 27.4648 204.117 27.4648H205.309ZM213.57 11.957C213.57 11.1758 213.935 10.6289 214.664 10.3164C214.872 10.2253 215.1 10.1797 215.348 10.1797H219.957C221.546 10.1797 222.906 10.7461 224.039 11.8789C225.172 13.0117 225.738 14.3724 225.738 15.9609V29.1055C225.738 30.0951 225.27 30.7917 224.332 31.1953C224.046 31.3255 223.733 31.3906 223.395 31.3906C223.056 31.3906 222.763 31.332 222.516 31.2148C222.281 31.1107 222.079 30.987 221.91 30.8438C221.767 30.7135 221.624 30.5312 221.48 30.2969C221.337 30.0495 221.227 29.8672 221.148 29.75C221.07 29.6328 220.947 29.5742 220.777 29.5742C220.608 29.5742 220.471 29.6328 220.367 29.75L220.055 30.082C219.182 30.9544 218.16 31.3906 216.988 31.3906C215.595 31.3906 214.391 30.8177 213.375 29.6719C212.359 28.5391 211.852 27.1849 211.852 25.6094V22.9141C211.852 21.3255 212.418 19.9648 213.551 18.832C214.671 17.7122 216.031 17.1523 217.633 17.1523H221.109V16.0195C221.109 15.3685 220.947 14.8802 220.621 14.5547C220.048 13.9818 219.443 13.6953 218.805 13.6953H215.348C214.866 13.6953 214.495 13.5716 214.234 13.3242C213.792 12.9076 213.57 12.4518 213.57 11.957ZM216.48 25.5703C216.48 26.2344 216.643 26.7227 216.969 27.0352C217.542 27.582 218.069 27.8555 218.551 27.8555C219.033 27.8555 219.41 27.8099 219.684 27.7188C219.97 27.6276 220.217 27.4974 220.426 27.3281C220.882 26.9635 221.109 26.4818 221.109 25.8828V20.6484H218.805C218.141 20.6484 217.646 20.8112 217.32 21.1367C216.76 21.6966 216.48 22.3021 216.48 22.9531V25.5703ZM234.41 31C233.928 31 233.512 30.8307 233.16 30.4922C232.809 30.1536 232.633 29.8021 232.633 29.4375C232.633 29.0729 232.678 28.7865 232.77 28.5781C232.874 28.3568 233.01 28.1615 233.18 27.9922C233.531 27.6406 233.941 27.4648 234.41 27.4648H238.727C239.521 27.4648 240.159 27.2435 240.641 26.8008C241.122 26.3451 241.363 25.7852 241.363 25.1211C241.363 24.457 241.181 23.9232 240.816 23.5195C240.452 23.1029 240.003 22.8099 239.469 22.6406L235.953 21.6641C234.742 21.2995 233.779 20.6224 233.062 19.6328C232.333 18.6302 231.969 17.569 231.969 16.4492C231.969 15.3294 232.132 14.4049 232.457 13.6758C232.796 12.9466 233.245 12.3216 233.805 11.8008C234.964 10.7201 236.396 10.1797 238.102 10.1797H242.867C243.362 10.1797 243.772 10.3555 244.098 10.707C244.423 11.0456 244.586 11.4622 244.586 11.957C244.586 12.4518 244.423 12.8685 244.098 13.207C243.772 13.5326 243.362 13.6953 242.867 13.6953H238.473C237.809 13.6953 237.288 13.8906 236.91 14.2812C236.546 14.6719 236.363 15.1341 236.363 15.668C236.363 16.5013 236.826 17.1263 237.75 17.543L241.578 18.6562C243.635 19.3464 245.003 20.6484 245.68 22.5625C245.901 23.2135 246.012 23.9622 246.012 24.8086C246.012 25.6549 245.836 26.4622 245.484 27.2305C245.146 27.9987 244.69 28.6628 244.117 29.2227C242.906 30.4076 241.48 31 239.84 31H234.41Z" fill="#FF7A00"/>
</svg>
