<svg width="16" height="15" viewBox="0 0 16 15" fill="none" xmlns="http://www.w3.org/2000/svg">
<path d="M14.1812 8.72238L14.1812 8.7224C14.1581 8.82961 14.0783 8.875 14.0199 8.875H5.877H5.27072L5.38615 9.47019L5.56795 10.4077L5.64646 10.8125H6.05881H13.5149C13.5578 10.8125 13.6018 10.832 13.6372 10.8787C13.6731 10.9262 13.6919 10.9931 13.6762 11.0661L13.5229 11.7773L13.442 12.1527L13.7838 12.3277C14.1333 12.5066 14.3889 12.8944 14.3889 13.3594C14.3889 14.0147 13.8916 14.5 13.3333 14.5C12.7751 14.5 12.2778 14.0147 12.2778 13.3594C12.2778 13.0316 12.4052 12.741 12.6044 12.5352L13.4248 11.6875H12.2451H6.42156H5.24174L6.06229 12.5352C6.26143 12.741 6.38889 13.0316 6.38889 13.3594C6.38889 14.0147 5.89155 14.5 5.33333 14.5C4.77512 14.5 4.27778 14.0147 4.27778 13.3594C4.27778 12.9242 4.50212 12.556 4.8185 12.3641L5.11638 12.1834L5.05005 11.8414L3.09872 1.7798L3.02021 1.375H2.60786H0.666667C0.599366 1.375 0.5 1.30948 0.5 1.17188V0.703125C0.5 0.565519 0.599366 0.5 0.666667 0.5H3.5147C3.57397 0.5 3.6556 0.547126 3.67698 0.65738L3.67698 0.657406L3.93159 1.9702L4.0101 2.375H4.42245H15.3331C15.376 2.375 15.42 2.39445 15.4554 2.44122C15.4913 2.4887 15.5101 2.55561 15.4944 2.62863L14.1812 8.72238Z" stroke="black"/>
</svg>
