<svg width="158" height="53" viewBox="0 0 158 53" fill="none" xmlns="http://www.w3.org/2000/svg">
<rect y="14.3698" width="32.3477" height="43.0629" transform="rotate(-26.374 0 14.3698)" fill="#75E8A4"/>
<g filter="url(#filter0_d_104_4)">
<path d="M29.04 30.58C29.04 32.22 28.3 33.6 26.82 34.72C25.34 35.82 23.64 36.37 21.72 36.37C19.82 36.37 18.25 35.88 17.01 34.9C15.77 33.9 15.15 32.96 15.15 32.08C15.15 31.48 15.33 31.18 15.69 31.18C16.01 31.18 16.64 31.66 17.58 32.62C17.94 32.96 18.42 33.28 19.02 33.58C19.64 33.88 20.29 34.03 20.97 34.03C22.37 34.03 23.61 33.67 24.69 32.95C25.79 32.23 26.34 31.45 26.34 30.61C26.34 30.07 25.98 29.38 25.26 28.54C24.54 27.7 23.74 26.91 22.86 26.17C22 25.41 21.21 24.6 20.49 23.74C19.77 22.88 19.41 22.2 19.41 21.7C19.41 21.2 19.51 20.67 19.71 20.11C19.91 19.55 20.13 19.14 20.37 18.88C21.15 18.02 22.36 17.23 24 16.51C25.66 15.79 27.05 15.43 28.17 15.43C28.75 15.43 29.24 15.62 29.64 16C30.04 16.38 30.24 16.78 30.24 17.2C30.24 17.4 30.03 17.56 29.61 17.68C29.19 17.8 28.55 17.96 27.69 18.16C26.85 18.34 26.1 18.56 25.44 18.82C23.14 19.7 21.99 20.55 21.99 21.37C21.99 21.81 23.16 23.04 25.5 25.06C26.4 25.84 27.21 26.75 27.93 27.79C28.67 28.81 29.04 29.74 29.04 30.58ZM35.2275 33.55C35.2275 33.93 35.4475 34.12 35.8875 34.12C36.6475 34.12 37.5675 33.91 38.6475 33.49C39.7475 33.05 40.3575 32.83 40.4775 32.83C40.8375 32.83 41.0175 33.02 41.0175 33.4C41.0175 33.98 40.4175 34.65 39.2175 35.41C38.0375 36.17 36.9575 36.55 35.9775 36.55C35.0175 36.55 34.2175 36.29 33.5775 35.77C32.9375 35.23 32.6175 34.68 32.6175 34.12C32.6175 33.56 32.7375 32.85 32.9775 31.99C33.2175 31.11 33.5575 29.96 33.9975 28.54C34.4575 27.1 34.8175 25.91 35.0775 24.97C34.1375 25.19 33.5075 25.3 33.1875 25.3C32.8675 25.3 32.5475 25.14 32.2275 24.82C31.9275 24.48 31.7775 24.16 31.7775 23.86C31.7775 23.38 33.0775 22.92 35.6775 22.48C36.0375 20.82 36.2175 19.35 36.2175 18.07C36.2175 17.47 36.4175 17.17 36.8175 17.17C37.1575 17.17 37.5775 17.39 38.0775 17.83C38.5775 18.25 38.8275 18.73 38.8275 19.27C38.8275 19.81 38.6575 20.76 38.3175 22.12C39.4575 22.02 40.3675 21.97 41.0475 21.97C42.2475 21.97 42.8475 22.23 42.8475 22.75C42.8475 23.05 42.5175 23.3 41.8575 23.5C41.2175 23.7 39.8575 24.01 37.7775 24.43C37.3575 26.01 36.8275 27.82 36.1875 29.86C35.5475 31.88 35.2275 33.11 35.2275 33.55ZM55.1991 21.67C55.5191 21.67 55.8591 21.91 56.2191 22.39C56.5991 22.85 56.7891 23.37 56.7891 23.95C56.7891 24.35 56.3791 25.71 55.5591 28.03C54.7391 30.35 54.1791 31.93 53.8791 32.77C53.5991 33.59 53.2091 34.69 52.7091 36.07C52.2291 37.43 51.7591 38.76 51.2991 40.06C50.2991 42.92 48.7991 44.35 46.7991 44.35C45.6591 44.35 44.5691 44 43.5291 43.3C42.4891 42.62 41.9691 41.91 41.9691 41.17C41.9691 40.89 42.0991 40.58 42.3591 40.24C42.5991 39.9 42.8091 39.73 42.9891 39.73C43.1691 39.73 43.4591 39.95 43.8591 40.39C45.0191 41.71 46.0091 42.37 46.8291 42.37C47.4491 42.37 48.0091 41.82 48.5091 40.72C49.0091 39.64 49.4791 38.41 49.9191 37.03C50.3791 35.67 50.6291 34.92 50.6691 34.78C50.7291 34.64 50.7891 34.46 50.8491 34.24C50.9291 34.02 50.9991 33.82 51.0591 33.64C49.6391 35.58 48.2391 36.55 46.8591 36.55C46.0191 36.55 45.2391 36.16 44.5191 35.38C43.8191 34.6 43.4691 33.68 43.4691 32.62C43.4691 31.56 43.7291 30.13 44.2491 28.33C44.7691 26.53 45.3791 24.97 46.0791 23.65C46.7791 22.33 47.3491 21.67 47.7891 21.67C48.1491 21.67 48.4791 21.84 48.7791 22.18C49.0991 22.5 49.2591 22.83 49.2591 23.17C49.2591 23.51 48.9991 24.22 48.4791 25.3C46.8591 28.62 46.0491 31.2 46.0491 33.04C46.0491 33.36 46.1491 33.63 46.3491 33.85C46.5491 34.05 46.7891 34.15 47.0691 34.15C47.7891 34.15 48.6491 33.51 49.6491 32.23C50.6491 30.95 51.5691 29.43 52.4091 27.67C53.1091 26.19 53.8391 24.3 54.5991 22C54.6791 21.78 54.8791 21.67 55.1991 21.67ZM63.4416 15.79C63.4416 19.55 62.6616 24.43 61.1016 30.43C60.1016 34.51 59.4016 36.55 59.0016 36.55C58.7216 36.55 58.3916 36.33 58.0116 35.89C57.6516 35.45 57.4716 35.11 57.4716 34.87C57.4716 34.63 57.7616 33.39 58.3416 31.15C58.9216 28.91 59.5016 26.16 60.0816 22.9C60.6616 19.62 60.9516 16.67 60.9516 14.05C60.9516 13.77 60.9916 13.57 61.0716 13.45C61.1516 13.33 61.3216 13.27 61.5816 13.27C61.8416 13.27 62.2116 13.56 62.6916 14.14C63.1916 14.7 63.4416 15.25 63.4416 15.79ZM76.8551 26.65C76.8551 27.71 76.2751 28.58 75.1151 29.26C73.9751 29.92 72.6751 30.25 71.2151 30.25C69.7751 30.25 68.4651 30.09 67.2851 29.77C67.0051 30.65 66.8651 31.44 66.8651 32.14C66.8651 32.82 67.0751 33.35 67.4951 33.73C67.9351 34.11 68.6451 34.3 69.6251 34.3C70.6251 34.3 71.6451 34.13 72.6851 33.79C73.7451 33.43 74.3251 33.25 74.4251 33.25C74.9451 33.25 75.2051 33.45 75.2051 33.85C75.2051 34.39 74.5951 34.98 73.3751 35.62C72.1551 36.24 70.9651 36.55 69.8051 36.55C68.2451 36.55 66.9751 36.09 65.9951 35.17C65.0151 34.23 64.5251 33.05 64.5251 31.63C64.5251 30.21 64.9051 28.73 65.6651 27.19C66.4251 25.63 67.4051 24.32 68.6051 23.26C69.8051 22.2 70.9951 21.67 72.1751 21.67C73.3551 21.67 74.4251 22.23 75.3851 23.35C76.3651 24.47 76.8551 25.57 76.8551 26.65ZM72.3251 24.04C71.5851 24.04 70.8151 24.43 70.0151 25.21C69.2151 25.97 68.5351 26.92 67.9751 28.06C68.7751 28.24 69.6851 28.33 70.7051 28.33C71.7251 28.33 72.6151 28.17 73.3751 27.85C74.1351 27.51 74.5151 27.07 74.5151 26.53C74.5151 25.99 74.2651 25.44 73.7651 24.88C73.2851 24.32 72.8051 24.04 72.3251 24.04Z" fill="#474747"/>
<path d="M103.542 30.58C103.542 32.22 102.802 33.6 101.322 34.72C99.842 35.82 98.142 36.37 96.222 36.37C94.322 36.37 92.752 35.88 91.512 34.9C90.272 33.9 89.652 32.96 89.652 32.08C89.652 31.48 89.832 31.18 90.192 31.18C90.512 31.18 91.142 31.66 92.082 32.62C92.442 32.96 92.922 33.28 93.522 33.58C94.142 33.88 94.792 34.03 95.472 34.03C96.872 34.03 98.112 33.67 99.192 32.95C100.292 32.23 100.842 31.45 100.842 30.61C100.842 30.07 100.482 29.38 99.762 28.54C99.042 27.7 98.242 26.91 97.362 26.17C96.502 25.41 95.712 24.6 94.992 23.74C94.272 22.88 93.912 22.2 93.912 21.7C93.912 21.2 94.012 20.67 94.212 20.11C94.412 19.55 94.632 19.14 94.872 18.88C95.652 18.02 96.862 17.23 98.502 16.51C100.162 15.79 101.552 15.43 102.672 15.43C103.252 15.43 103.742 15.62 104.142 16C104.542 16.38 104.742 16.78 104.742 17.2C104.742 17.4 104.532 17.56 104.112 17.68C103.692 17.8 103.052 17.96 102.192 18.16C101.352 18.34 100.602 18.56 99.942 18.82C97.642 19.7 96.492 20.55 96.492 21.37C96.492 21.81 97.662 23.04 100.002 25.06C100.902 25.84 101.712 26.75 102.432 27.79C103.172 28.81 103.542 29.74 103.542 30.58ZM109.729 33.55C109.729 33.93 109.949 34.12 110.389 34.12C111.149 34.12 112.069 33.91 113.149 33.49C114.249 33.05 114.859 32.83 114.979 32.83C115.339 32.83 115.519 33.02 115.519 33.4C115.519 33.98 114.919 34.65 113.719 35.41C112.539 36.17 111.459 36.55 110.479 36.55C109.519 36.55 108.719 36.29 108.079 35.77C107.439 35.23 107.119 34.68 107.119 34.12C107.119 33.56 107.239 32.85 107.479 31.99C107.719 31.11 108.059 29.96 108.499 28.54C108.959 27.1 109.319 25.91 109.579 24.97C108.639 25.19 108.009 25.3 107.689 25.3C107.369 25.3 107.049 25.14 106.729 24.82C106.429 24.48 106.279 24.16 106.279 23.86C106.279 23.38 107.579 22.92 110.179 22.48C110.539 20.82 110.719 19.35 110.719 18.07C110.719 17.47 110.919 17.17 111.319 17.17C111.659 17.17 112.079 17.39 112.579 17.83C113.079 18.25 113.329 18.73 113.329 19.27C113.329 19.81 113.159 20.76 112.819 22.12C113.959 22.02 114.869 21.97 115.549 21.97C116.749 21.97 117.349 22.23 117.349 22.75C117.349 23.05 117.019 23.3 116.359 23.5C115.719 23.7 114.359 24.01 112.279 24.43C111.859 26.01 111.329 27.82 110.689 29.86C110.049 31.88 109.729 33.11 109.729 33.55ZM127.031 26.77C127.031 26.09 126.921 25.45 126.701 24.85C126.481 24.23 126.161 23.78 125.741 23.5C124.361 23.88 123.171 24.95 122.171 26.71C121.191 28.45 120.701 30.09 120.701 31.63C120.701 33.17 121.081 34.13 121.841 34.51C123.281 34.23 124.501 33.25 125.501 31.57C126.521 29.87 127.031 28.27 127.031 26.77ZM119.141 27.04C119.841 25.48 120.751 24.2 121.871 23.2C123.011 22.18 124.171 21.67 125.351 21.67C126.551 21.67 127.551 22.18 128.351 23.2C129.151 24.2 129.551 25.43 129.551 26.89C129.551 28.33 129.201 29.81 128.501 31.33C127.801 32.83 126.831 34.08 125.591 35.08C124.371 36.06 123.071 36.55 121.691 36.55C120.671 36.55 119.821 36.08 119.141 35.14C118.461 34.2 118.121 33.01 118.121 31.57C118.121 30.11 118.461 28.6 119.141 27.04ZM133.365 25.33L133.275 23.08C133.275 22.14 133.495 21.67 133.935 21.67C134.315 21.67 134.675 21.92 135.015 22.42C135.375 22.9 135.555 23.48 135.555 24.16C135.555 24.82 135.535 25.32 135.495 25.66C137.235 23.02 138.885 21.7 140.445 21.7C141.425 21.7 141.915 21.94 141.915 22.42C141.915 22.66 141.805 22.88 141.585 23.08C141.365 23.28 141.015 23.51 140.535 23.77C139.475 24.23 138.575 24.94 137.835 25.9C137.115 26.84 136.525 27.91 136.065 29.11C135.605 30.31 135.235 31.32 134.955 32.14C134.695 32.96 134.495 33.6 134.355 34.06C134.215 34.52 134.055 34.97 133.875 35.41C133.555 36.21 133.185 36.61 132.765 36.61C132.425 36.61 132.145 36.42 131.925 36.04C131.725 35.64 131.625 35.26 131.625 34.9C131.625 34.52 131.795 33.78 132.135 32.68C132.955 30.16 133.365 27.71 133.365 25.33ZM153.466 26.65C153.466 27.71 152.886 28.58 151.726 29.26C150.586 29.92 149.286 30.25 147.826 30.25C146.386 30.25 145.076 30.09 143.896 29.77C143.616 30.65 143.476 31.44 143.476 32.14C143.476 32.82 143.686 33.35 144.106 33.73C144.546 34.11 145.256 34.3 146.236 34.3C147.236 34.3 148.256 34.13 149.296 33.79C150.356 33.43 150.936 33.25 151.036 33.25C151.556 33.25 151.816 33.45 151.816 33.85C151.816 34.39 151.206 34.98 149.986 35.62C148.766 36.24 147.576 36.55 146.416 36.55C144.856 36.55 143.586 36.09 142.606 35.17C141.626 34.23 141.136 33.05 141.136 31.63C141.136 30.21 141.516 28.73 142.276 27.19C143.036 25.63 144.016 24.32 145.216 23.26C146.416 22.2 147.606 21.67 148.786 21.67C149.966 21.67 151.036 22.23 151.996 23.35C152.976 24.47 153.466 25.57 153.466 26.65ZM148.936 24.04C148.196 24.04 147.426 24.43 146.626 25.21C145.826 25.97 145.146 26.92 144.586 28.06C145.386 28.24 146.296 28.33 147.316 28.33C148.336 28.33 149.226 28.17 149.986 27.85C150.746 27.51 151.126 27.07 151.126 26.53C151.126 25.99 150.876 25.44 150.376 24.88C149.896 24.32 149.416 24.04 148.936 24.04Z" fill="#42C075"/>
</g>
<defs>
<filter id="filter0_d_104_4" x="11.1499" y="13.27" width="146.316" height="39.08" filterUnits="userSpaceOnUse" color-interpolation-filters="sRGB">
<feFlood flood-opacity="0" result="BackgroundImageFix"/>
<feColorMatrix in="SourceAlpha" type="matrix" values="0 0 0 0 0 0 0 0 0 0 0 0 0 0 0 0 0 0 127 0" result="hardAlpha"/>
<feOffset dy="4"/>
<feGaussianBlur stdDeviation="2"/>
<feComposite in2="hardAlpha" operator="out"/>
<feColorMatrix type="matrix" values="0 0 0 0 0 0 0 0 0 0 0 0 0 0 0 0 0 0 0.25 0"/>
<feBlend mode="normal" in2="BackgroundImageFix" result="effect1_dropShadow_104_4"/>
<feBlend mode="normal" in="SourceGraphic" in2="effect1_dropShadow_104_4" result="shape"/>
</filter>
</defs>
</svg>
