<svg width="144" height="53" viewBox="0 0 144 53" fill="none" xmlns="http://www.w3.org/2000/svg">
<rect y="14.3698" width="32.3477" height="43.0629" transform="rotate(-26.374 0 14.3698)" fill="#75E8A4"/>
<path d="M13.18 28.64L11.14 30.02C11.6 30.94 12.19 31.81 12.91 32.63C13.65 33.43 14.5 34.08 15.46 34.58C16.44 35.06 17.5 35.3 18.64 35.3C19.48 35.3 20.28 35.16 21.04 34.88C21.82 34.6 22.51 34.2 23.11 33.68C23.73 33.16 24.21 32.53 24.55 31.79C24.91 31.05 25.09 30.22 25.09 29.3C25.09 28.34 24.92 27.52 24.58 26.84C24.24 26.14 23.8 25.55 23.26 25.07C22.74 24.57 22.17 24.16 21.55 23.84C20.93 23.52 20.34 23.26 19.78 23.06C18.56 22.64 17.59 22.22 16.87 21.8C16.17 21.36 15.67 20.9 15.37 20.42C15.07 19.92 14.92 19.38 14.92 18.8C14.92 18.12 15.18 17.51 15.7 16.97C16.22 16.41 17.05 16.13 18.19 16.13C19.01 16.13 19.7 16.29 20.26 16.61C20.84 16.93 21.33 17.34 21.73 17.84C22.13 18.34 22.46 18.85 22.72 19.37L24.91 18.11C24.57 17.37 24.1 16.67 23.5 16.01C22.9 15.33 22.17 14.78 21.31 14.36C20.47 13.92 19.48 13.7 18.34 13.7C17.16 13.7 16.11 13.94 15.19 14.42C14.27 14.88 13.55 15.52 13.03 16.34C12.51 17.16 12.25 18.09 12.25 19.13C12.25 20.09 12.43 20.9 12.79 21.56C13.17 22.22 13.65 22.78 14.23 23.24C14.81 23.68 15.42 24.05 16.06 24.35C16.7 24.63 17.28 24.86 17.8 25.04C18.6 25.32 19.35 25.64 20.05 26C20.77 26.34 21.35 26.79 21.79 27.35C22.23 27.91 22.45 28.66 22.45 29.6C22.45 30.56 22.11 31.35 21.43 31.97C20.75 32.59 19.85 32.9 18.73 32.9C17.89 32.9 17.14 32.72 16.48 32.36C15.82 32 15.22 31.5 14.68 30.86C14.16 30.22 13.66 29.48 13.18 28.64ZM26.5855 21.2V23.45H33.4855V21.2H26.5855ZM28.8355 16.4V35H31.2355V16.4H28.8355ZM46.8426 21.2H44.1426L39.8826 31.88L40.8726 32L36.4926 21.2H33.6426L38.9226 33.05L35.1426 41.6H37.8426L46.8426 21.2ZM49.1055 11.6V35H51.5055V11.6H49.1055ZM61.3595 35.3C62.8395 35.3 64.1195 35.01 65.1995 34.43C66.2995 33.83 67.2095 32.95 67.9295 31.79L65.9795 30.56C65.4795 31.4 64.8695 32.03 64.1495 32.45C63.4295 32.85 62.5995 33.05 61.6595 33.05C60.7195 33.05 59.9195 32.85 59.2595 32.45C58.5995 32.05 58.0995 31.47 57.7595 30.71C57.4195 29.95 57.2495 29.03 57.2495 27.95C57.2695 26.89 57.4495 26 57.7895 25.28C58.1495 24.54 58.6495 23.98 59.2895 23.6C59.9495 23.2 60.7395 23 61.6595 23C62.4395 23 63.1195 23.17 63.6995 23.51C64.2795 23.85 64.7295 24.32 65.0495 24.92C65.3895 25.52 65.5595 26.23 65.5595 27.05C65.5595 27.19 65.5295 27.37 65.4695 27.59C65.4095 27.79 65.3495 27.94 65.2895 28.04L66.2495 26.66H56.3495V28.7H68.1395C68.1395 28.66 68.1395 28.57 68.1395 28.43C68.1595 28.27 68.1695 28.12 68.1695 27.98C68.1695 26.52 67.9095 25.26 67.3895 24.2C66.8695 23.14 66.1195 22.33 65.1395 21.77C64.1795 21.19 63.0195 20.9 61.6595 20.9C60.2995 20.9 59.0995 21.2 58.0595 21.8C57.0395 22.4 56.2395 23.24 55.6595 24.32C55.0995 25.4 54.8195 26.66 54.8195 28.1C54.8195 29.52 55.0895 30.77 55.6295 31.85C56.1895 32.93 56.9595 33.78 57.9395 34.4C58.9395 35 60.0795 35.3 61.3595 35.3ZM81.3831 28.64L79.3431 30.02C79.8031 30.94 80.3931 31.81 81.1131 32.63C81.8531 33.43 82.7031 34.08 83.6631 34.58C84.6431 35.06 85.7031 35.3 86.8431 35.3C87.6831 35.3 88.4831 35.16 89.2431 34.88C90.0231 34.6 90.7131 34.2 91.3131 33.68C91.9331 33.16 92.4131 32.53 92.7531 31.79C93.1131 31.05 93.2931 30.22 93.2931 29.3C93.2931 28.34 93.1231 27.52 92.7831 26.84C92.4431 26.14 92.0031 25.55 91.4631 25.07C90.9431 24.57 90.3731 24.16 89.7531 23.84C89.1331 23.52 88.5431 23.26 87.9831 23.06C86.7631 22.64 85.7931 22.22 85.0731 21.8C84.3731 21.36 83.8731 20.9 83.5731 20.42C83.2731 19.92 83.1231 19.38 83.1231 18.8C83.1231 18.12 83.3831 17.51 83.9031 16.97C84.4231 16.41 85.2531 16.13 86.3931 16.13C87.2131 16.13 87.9031 16.29 88.4631 16.61C89.0431 16.93 89.5331 17.34 89.9331 17.84C90.3331 18.34 90.6631 18.85 90.9231 19.37L93.1131 18.11C92.7731 17.37 92.3031 16.67 91.7031 16.01C91.1031 15.33 90.3731 14.78 89.5131 14.36C88.6731 13.92 87.6831 13.7 86.5431 13.7C85.3631 13.7 84.3131 13.94 83.3931 14.42C82.4731 14.88 81.7531 15.52 81.2331 16.34C80.7131 17.16 80.4531 18.09 80.4531 19.13C80.4531 20.09 80.6331 20.9 80.9931 21.56C81.3731 22.22 81.8531 22.78 82.4331 23.24C83.0131 23.68 83.6231 24.05 84.2631 24.35C84.9031 24.63 85.4831 24.86 86.0031 25.04C86.8031 25.32 87.5531 25.64 88.2531 26C88.9731 26.34 89.5531 26.79 89.9931 27.35C90.4331 27.91 90.6531 28.66 90.6531 29.6C90.6531 30.56 90.3131 31.35 89.6331 31.97C88.9531 32.59 88.0531 32.9 86.9331 32.9C86.0931 32.9 85.3431 32.72 84.6831 32.36C84.0231 32 83.4231 31.5 82.8831 30.86C82.3631 30.22 81.8631 29.48 81.3831 28.64ZM94.7887 21.2V23.45H101.689V21.2H94.7887ZM97.0387 16.4V35H99.4387V16.4H97.0387ZM102.896 28.1C102.896 29.48 103.206 30.72 103.826 31.82C104.466 32.9 105.326 33.75 106.406 34.37C107.486 34.99 108.696 35.3 110.036 35.3C111.396 35.3 112.606 34.99 113.666 34.37C114.746 33.75 115.596 32.9 116.216 31.82C116.856 30.72 117.176 29.48 117.176 28.1C117.176 26.7 116.856 25.46 116.216 24.38C115.596 23.3 114.746 22.45 113.666 21.83C112.606 21.21 111.396 20.9 110.036 20.9C108.696 20.9 107.486 21.21 106.406 21.83C105.326 22.45 104.466 23.3 103.826 24.38C103.206 25.46 102.896 26.7 102.896 28.1ZM105.326 28.1C105.326 27.14 105.526 26.29 105.926 25.55C106.346 24.79 106.906 24.2 107.606 23.78C108.326 23.36 109.136 23.15 110.036 23.15C110.936 23.15 111.736 23.36 112.436 23.78C113.156 24.2 113.716 24.79 114.116 25.55C114.536 26.29 114.746 27.14 114.746 28.1C114.746 29.06 114.536 29.91 114.116 30.65C113.716 31.39 113.156 31.98 112.436 32.42C111.736 32.84 110.936 33.05 110.036 33.05C109.136 33.05 108.326 32.84 107.606 32.42C106.906 31.98 106.346 31.39 105.926 30.65C105.526 29.91 105.326 29.06 105.326 28.1ZM122.873 21.2H120.473V35H122.873V21.2ZM127.043 23.84L128.363 21.86C128.003 21.48 127.603 21.23 127.163 21.11C126.743 20.97 126.283 20.9 125.783 20.9C125.143 20.9 124.513 21.15 123.893 21.65C123.273 22.15 122.763 22.83 122.363 23.69C121.983 24.53 121.793 25.5 121.793 26.6H122.873C122.873 25.94 122.933 25.35 123.053 24.83C123.193 24.31 123.433 23.9 123.773 23.6C124.113 23.3 124.583 23.15 125.183 23.15C125.583 23.15 125.913 23.21 126.173 23.33C126.433 23.43 126.723 23.6 127.043 23.84ZM135.656 35.3C137.136 35.3 138.416 35.01 139.496 34.43C140.596 33.83 141.506 32.95 142.226 31.79L140.276 30.56C139.776 31.4 139.166 32.03 138.446 32.45C137.726 32.85 136.896 33.05 135.956 33.05C135.016 33.05 134.216 32.85 133.556 32.45C132.896 32.05 132.396 31.47 132.056 30.71C131.716 29.95 131.546 29.03 131.546 27.95C131.566 26.89 131.746 26 132.086 25.28C132.446 24.54 132.946 23.98 133.586 23.6C134.246 23.2 135.036 23 135.956 23C136.736 23 137.416 23.17 137.996 23.51C138.576 23.85 139.026 24.32 139.346 24.92C139.686 25.52 139.856 26.23 139.856 27.05C139.856 27.19 139.826 27.37 139.766 27.59C139.706 27.79 139.646 27.94 139.586 28.04L140.546 26.66H130.646V28.7H142.436C142.436 28.66 142.436 28.57 142.436 28.43C142.456 28.27 142.466 28.12 142.466 27.98C142.466 26.52 142.206 25.26 141.686 24.2C141.166 23.14 140.416 22.33 139.436 21.77C138.476 21.19 137.316 20.9 135.956 20.9C134.596 20.9 133.396 21.2 132.356 21.8C131.336 22.4 130.536 23.24 129.956 24.32C129.396 25.4 129.116 26.66 129.116 28.1C129.116 29.52 129.386 30.77 129.926 31.85C130.486 32.93 131.256 33.78 132.236 34.4C133.236 35 134.376 35.3 135.656 35.3Z" fill="black"/>
</svg>
