<svg width="151" height="40" viewBox="0 0 151 40" fill="none" xmlns="http://www.w3.org/2000/svg">
<rect width="28.3886" height="27.5498" transform="matrix(0.927556 -0.373684 0.520923 0.853604 0 15.6084)" fill="#75E8A4"/>
<path d="M25.04 25.58C25.04 27.22 24.3 28.6 22.82 29.72C21.34 30.82 19.64 31.37 17.72 31.37C15.82 31.37 14.25 30.88 13.01 29.9C11.77 28.9 11.15 27.96 11.15 27.08C11.15 26.48 11.33 26.18 11.69 26.18C12.01 26.18 12.64 26.66 13.58 27.62C13.94 27.96 14.42 28.28 15.02 28.58C15.64 28.88 16.29 29.03 16.97 29.03C18.37 29.03 19.61 28.67 20.69 27.95C21.79 27.23 22.34 26.45 22.34 25.61C22.34 25.07 21.98 24.38 21.26 23.54C20.54 22.7 19.74 21.91 18.86 21.17C18 20.41 17.21 19.6 16.49 18.74C15.77 17.88 15.41 17.2 15.41 16.7C15.41 16.2 15.51 15.67 15.71 15.11C15.91 14.55 16.13 14.14 16.37 13.88C17.15 13.02 18.36 12.23 20 11.51C21.66 10.79 23.05 10.43 24.17 10.43C24.75 10.43 25.24 10.62 25.64 11C26.04 11.38 26.24 11.78 26.24 12.2C26.24 12.4 26.03 12.56 25.61 12.68C25.19 12.8 24.55 12.96 23.69 13.16C22.85 13.34 22.1 13.56 21.44 13.82C19.14 14.7 17.99 15.55 17.99 16.37C17.99 16.81 19.16 18.04 21.5 20.06C22.4 20.84 23.21 21.75 23.93 22.79C24.67 23.81 25.04 24.74 25.04 25.58ZM31.2275 28.55C31.2275 28.93 31.4475 29.12 31.8875 29.12C32.6475 29.12 33.5675 28.91 34.6475 28.49C35.7475 28.05 36.3575 27.83 36.4775 27.83C36.8375 27.83 37.0175 28.02 37.0175 28.4C37.0175 28.98 36.4175 29.65 35.2175 30.41C34.0375 31.17 32.9575 31.55 31.9775 31.55C31.0175 31.55 30.2175 31.29 29.5775 30.77C28.9375 30.23 28.6175 29.68 28.6175 29.12C28.6175 28.56 28.7375 27.85 28.9775 26.99C29.2175 26.11 29.5575 24.96 29.9975 23.54C30.4575 22.1 30.8175 20.91 31.0775 19.97C30.1375 20.19 29.5075 20.3 29.1875 20.3C28.8675 20.3 28.5475 20.14 28.2275 19.82C27.9275 19.48 27.7775 19.16 27.7775 18.86C27.7775 18.38 29.0775 17.92 31.6775 17.48C32.0375 15.82 32.2175 14.35 32.2175 13.07C32.2175 12.47 32.4175 12.17 32.8175 12.17C33.1575 12.17 33.5775 12.39 34.0775 12.83C34.5775 13.25 34.8275 13.73 34.8275 14.27C34.8275 14.81 34.6575 15.76 34.3175 17.12C35.4575 17.02 36.3675 16.97 37.0475 16.97C38.2475 16.97 38.8475 17.23 38.8475 17.75C38.8475 18.05 38.5175 18.3 37.8575 18.5C37.2175 18.7 35.8575 19.01 33.7775 19.43C33.3575 21.01 32.8275 22.82 32.1875 24.86C31.5475 26.88 31.2275 28.11 31.2275 28.55ZM51.1991 16.67C51.5191 16.67 51.8591 16.91 52.2191 17.39C52.5991 17.85 52.7891 18.37 52.7891 18.95C52.7891 19.35 52.3791 20.71 51.5591 23.03C50.7391 25.35 50.1791 26.93 49.8791 27.77C49.5991 28.59 49.2091 29.69 48.7091 31.07C48.2291 32.43 47.7591 33.76 47.2991 35.06C46.2991 37.92 44.7991 39.35 42.7991 39.35C41.6591 39.35 40.5691 39 39.5291 38.3C38.4891 37.62 37.9691 36.91 37.9691 36.17C37.9691 35.89 38.0991 35.58 38.3591 35.24C38.5991 34.9 38.8091 34.73 38.9891 34.73C39.1691 34.73 39.4591 34.95 39.8591 35.39C41.0191 36.71 42.0091 37.37 42.8291 37.37C43.4491 37.37 44.0091 36.82 44.5091 35.72C45.0091 34.64 45.4791 33.41 45.9191 32.03C46.3791 30.67 46.6291 29.92 46.6691 29.78C46.7291 29.64 46.7891 29.46 46.8491 29.24C46.9291 29.02 46.9991 28.82 47.0591 28.64C45.6391 30.58 44.2391 31.55 42.8591 31.55C42.0191 31.55 41.2391 31.16 40.5191 30.38C39.8191 29.6 39.4691 28.68 39.4691 27.62C39.4691 26.56 39.7291 25.13 40.2491 23.33C40.7691 21.53 41.3791 19.97 42.0791 18.65C42.7791 17.33 43.3491 16.67 43.7891 16.67C44.1491 16.67 44.4791 16.84 44.7791 17.18C45.0991 17.5 45.2591 17.83 45.2591 18.17C45.2591 18.51 44.9991 19.22 44.4791 20.3C42.8591 23.62 42.0491 26.2 42.0491 28.04C42.0491 28.36 42.1491 28.63 42.3491 28.85C42.5491 29.05 42.7891 29.15 43.0691 29.15C43.7891 29.15 44.6491 28.51 45.6491 27.23C46.6491 25.95 47.5691 24.43 48.4091 22.67C49.1091 21.19 49.8391 19.3 50.5991 17C50.6791 16.78 50.8791 16.67 51.1991 16.67ZM59.4416 10.79C59.4416 14.55 58.6616 19.43 57.1016 25.43C56.1016 29.51 55.4016 31.55 55.0016 31.55C54.7216 31.55 54.3916 31.33 54.0116 30.89C53.6516 30.45 53.4716 30.11 53.4716 29.87C53.4716 29.63 53.7616 28.39 54.3416 26.15C54.9216 23.91 55.5016 21.16 56.0816 17.9C56.6616 14.62 56.9516 11.67 56.9516 9.05C56.9516 8.77 56.9916 8.57 57.0716 8.45C57.1516 8.33 57.3216 8.27 57.5816 8.27C57.8416 8.27 58.2116 8.56 58.6916 9.14C59.1916 9.7 59.4416 10.25 59.4416 10.79ZM72.8551 21.65C72.8551 22.71 72.2751 23.58 71.1151 24.26C69.9751 24.92 68.6751 25.25 67.2151 25.25C65.7751 25.25 64.4651 25.09 63.2851 24.77C63.0051 25.65 62.8651 26.44 62.8651 27.14C62.8651 27.82 63.0751 28.35 63.4951 28.73C63.9351 29.11 64.6451 29.3 65.6251 29.3C66.6251 29.3 67.6451 29.13 68.6851 28.79C69.7451 28.43 70.3251 28.25 70.4251 28.25C70.9451 28.25 71.2051 28.45 71.2051 28.85C71.2051 29.39 70.5951 29.98 69.3751 30.62C68.1551 31.24 66.9651 31.55 65.8051 31.55C64.2451 31.55 62.9751 31.09 61.9951 30.17C61.0151 29.23 60.5251 28.05 60.5251 26.63C60.5251 25.21 60.9051 23.73 61.6651 22.19C62.4251 20.63 63.4051 19.32 64.6051 18.26C65.8051 17.2 66.9951 16.67 68.1751 16.67C69.3551 16.67 70.4251 17.23 71.3851 18.35C72.3651 19.47 72.8551 20.57 72.8551 21.65ZM68.3251 19.04C67.5851 19.04 66.8151 19.43 66.0151 20.21C65.2151 20.97 64.5351 21.92 63.9751 23.06C64.7751 23.24 65.6851 23.33 66.7051 23.33C67.7251 23.33 68.6151 23.17 69.3751 22.85C70.1351 22.51 70.5151 22.07 70.5151 21.53C70.5151 20.99 70.2651 20.44 69.7651 19.88C69.2851 19.32 68.8051 19.04 68.3251 19.04Z" fill="#474747"/>
<path d="M99.542 25.58C99.542 27.22 98.802 28.6 97.322 29.72C95.842 30.82 94.142 31.37 92.222 31.37C90.322 31.37 88.752 30.88 87.512 29.9C86.272 28.9 85.652 27.96 85.652 27.08C85.652 26.48 85.832 26.18 86.192 26.18C86.512 26.18 87.142 26.66 88.082 27.62C88.442 27.96 88.922 28.28 89.522 28.58C90.142 28.88 90.792 29.03 91.472 29.03C92.872 29.03 94.112 28.67 95.192 27.95C96.292 27.23 96.842 26.45 96.842 25.61C96.842 25.07 96.482 24.38 95.762 23.54C95.042 22.7 94.242 21.91 93.362 21.17C92.502 20.41 91.712 19.6 90.992 18.74C90.272 17.88 89.912 17.2 89.912 16.7C89.912 16.2 90.012 15.67 90.212 15.11C90.412 14.55 90.632 14.14 90.872 13.88C91.652 13.02 92.862 12.23 94.502 11.51C96.162 10.79 97.552 10.43 98.672 10.43C99.252 10.43 99.742 10.62 100.142 11C100.542 11.38 100.742 11.78 100.742 12.2C100.742 12.4 100.532 12.56 100.112 12.68C99.692 12.8 99.052 12.96 98.192 13.16C97.352 13.34 96.602 13.56 95.942 13.82C93.642 14.7 92.492 15.55 92.492 16.37C92.492 16.81 93.662 18.04 96.002 20.06C96.902 20.84 97.712 21.75 98.432 22.79C99.172 23.81 99.542 24.74 99.542 25.58ZM105.729 28.55C105.729 28.93 105.949 29.12 106.389 29.12C107.149 29.12 108.069 28.91 109.149 28.49C110.249 28.05 110.859 27.83 110.979 27.83C111.339 27.83 111.519 28.02 111.519 28.4C111.519 28.98 110.919 29.65 109.719 30.41C108.539 31.17 107.459 31.55 106.479 31.55C105.519 31.55 104.719 31.29 104.079 30.77C103.439 30.23 103.119 29.68 103.119 29.12C103.119 28.56 103.239 27.85 103.479 26.99C103.719 26.11 104.059 24.96 104.499 23.54C104.959 22.1 105.319 20.91 105.579 19.97C104.639 20.19 104.009 20.3 103.689 20.3C103.369 20.3 103.049 20.14 102.729 19.82C102.429 19.48 102.279 19.16 102.279 18.86C102.279 18.38 103.579 17.92 106.179 17.48C106.539 15.82 106.719 14.35 106.719 13.07C106.719 12.47 106.919 12.17 107.319 12.17C107.659 12.17 108.079 12.39 108.579 12.83C109.079 13.25 109.329 13.73 109.329 14.27C109.329 14.81 109.159 15.76 108.819 17.12C109.959 17.02 110.869 16.97 111.549 16.97C112.749 16.97 113.349 17.23 113.349 17.75C113.349 18.05 113.019 18.3 112.359 18.5C111.719 18.7 110.359 19.01 108.279 19.43C107.859 21.01 107.329 22.82 106.689 24.86C106.049 26.88 105.729 28.11 105.729 28.55ZM123.031 21.77C123.031 21.09 122.921 20.45 122.701 19.85C122.481 19.23 122.161 18.78 121.741 18.5C120.361 18.88 119.171 19.95 118.171 21.71C117.191 23.45 116.701 25.09 116.701 26.63C116.701 28.17 117.081 29.13 117.841 29.51C119.281 29.23 120.501 28.25 121.501 26.57C122.521 24.87 123.031 23.27 123.031 21.77ZM115.141 22.04C115.841 20.48 116.751 19.2 117.871 18.2C119.011 17.18 120.171 16.67 121.351 16.67C122.551 16.67 123.551 17.18 124.351 18.2C125.151 19.2 125.551 20.43 125.551 21.89C125.551 23.33 125.201 24.81 124.501 26.33C123.801 27.83 122.831 29.08 121.591 30.08C120.371 31.06 119.071 31.55 117.691 31.55C116.671 31.55 115.821 31.08 115.141 30.14C114.461 29.2 114.121 28.01 114.121 26.57C114.121 25.11 114.461 23.6 115.141 22.04ZM129.365 20.33L129.275 18.08C129.275 17.14 129.495 16.67 129.935 16.67C130.315 16.67 130.675 16.92 131.015 17.42C131.375 17.9 131.555 18.48 131.555 19.16C131.555 19.82 131.535 20.32 131.495 20.66C133.235 18.02 134.885 16.7 136.445 16.7C137.425 16.7 137.915 16.94 137.915 17.42C137.915 17.66 137.805 17.88 137.585 18.08C137.365 18.28 137.015 18.51 136.535 18.77C135.475 19.23 134.575 19.94 133.835 20.9C133.115 21.84 132.525 22.91 132.065 24.11C131.605 25.31 131.235 26.32 130.955 27.14C130.695 27.96 130.495 28.6 130.355 29.06C130.215 29.52 130.055 29.97 129.875 30.41C129.555 31.21 129.185 31.61 128.765 31.61C128.425 31.61 128.145 31.42 127.925 31.04C127.725 30.64 127.625 30.26 127.625 29.9C127.625 29.52 127.795 28.78 128.135 27.68C128.955 25.16 129.365 22.71 129.365 20.33ZM149.466 21.65C149.466 22.71 148.886 23.58 147.726 24.26C146.586 24.92 145.286 25.25 143.826 25.25C142.386 25.25 141.076 25.09 139.896 24.77C139.616 25.65 139.476 26.44 139.476 27.14C139.476 27.82 139.686 28.35 140.106 28.73C140.546 29.11 141.256 29.3 142.236 29.3C143.236 29.3 144.256 29.13 145.296 28.79C146.356 28.43 146.936 28.25 147.036 28.25C147.556 28.25 147.816 28.45 147.816 28.85C147.816 29.39 147.206 29.98 145.986 30.62C144.766 31.24 143.576 31.55 142.416 31.55C140.856 31.55 139.586 31.09 138.606 30.17C137.626 29.23 137.136 28.05 137.136 26.63C137.136 25.21 137.516 23.73 138.276 22.19C139.036 20.63 140.016 19.32 141.216 18.26C142.416 17.2 143.606 16.67 144.786 16.67C145.966 16.67 147.036 17.23 147.996 18.35C148.976 19.47 149.466 20.57 149.466 21.65ZM144.936 19.04C144.196 19.04 143.426 19.43 142.626 20.21C141.826 20.97 141.146 21.92 140.586 23.06C141.386 23.24 142.296 23.33 143.316 23.33C144.336 23.33 145.226 23.17 145.986 22.85C146.746 22.51 147.126 22.07 147.126 21.53C147.126 20.99 146.876 20.44 146.376 19.88C145.896 19.32 145.416 19.04 144.936 19.04Z" fill="#42C075"/>
</svg>
