<svg width="17" height="17" viewBox="0 0 17 17" fill="none" xmlns="http://www.w3.org/2000/svg">
<path d="M12.7812 4.78125C12.7812 7.14476 10.8635 9.0625 8.5 9.0625C6.13649 9.0625 4.21875 7.14476 4.21875 4.78125C4.21875 2.41774 6.13649 0.5 8.5 0.5C10.8635 0.5 12.7812 2.41774 12.7812 4.78125ZM8.5 11.6562C9.39873 11.6562 10.2542 11.4641 11.0275 11.125H12.75C14.8213 11.125 16.5 12.8037 16.5 14.875V15.4062C16.5 16.01 16.01 16.5 15.4062 16.5H1.59375C0.99001 16.5 0.5 16.01 0.5 15.4062V14.875C0.5 12.8037 2.17868 11.125 4.25 11.125H5.97284C6.74826 11.4638 7.6006 11.6562 8.5 11.6562Z" stroke="black"/>
</svg>
